<svg xmlns="http://www.w3.org/2000/svg" xmlns:xlink="http://www.w3.org/1999/xlink" width="162" zoomAndPan="magnify" viewBox="0 0 121.5 34.499999" height="46" preserveAspectRatio="xMidYMid meet" version="1.0"><defs><g/></defs><g fill="#9f3f73" fill-opacity="1"><g transform="translate(11.853915, 24.902022)"><g><path d="M 1.59375 0 L 1.59375 -13.5 L 8.46875 -13.5 C 10.019531 -13.5 11.171875 -13.15625 11.921875 -12.46875 C 12.671875 -11.789062 13.046875 -10.695312 13.046875 -9.1875 L 13.046875 0 Z M 3.65625 -1.890625 L 11 -1.890625 L 11 -8.78125 C 11 -9.84375 10.757812 -10.578125 10.28125 -10.984375 C 9.8125 -11.398438 9.160156 -11.609375 8.328125 -11.609375 L 3.65625 -11.609375 Z M 3.65625 -1.890625 "/></g></g></g><g fill="#9f3f73" fill-opacity="1"><g transform="translate(26.726015, 24.902022)"><g><path d="M 1.9375 0 L 1.9375 -13.5 L 4 -13.5 L 4 0 Z M 1.9375 0 "/></g></g></g><g fill="#9f3f73" fill-opacity="1"><g transform="translate(32.656607, 24.902022)"><g><path d="M 8.484375 0 L 8.484375 -8.78125 C 8.484375 -9.84375 8.25 -10.578125 7.78125 -10.984375 C 7.3125 -11.398438 6.65625 -11.609375 5.8125 -11.609375 L 0.34375 -11.609375 L 0.34375 -13.5 L 5.953125 -13.5 C 7.503906 -13.5 8.65625 -13.15625 9.40625 -12.46875 C 10.164062 -11.789062 10.546875 -10.695312 10.546875 -9.1875 L 10.546875 0 Z M 8.484375 0 "/></g></g></g><g fill="#9f3f73" fill-opacity="1"><g transform="translate(45.019612, 24.902022)"><g><path d="M 7.234375 0 L 7.234375 -11.609375 L 0.234375 -11.609375 L 0.234375 -13.5 L 11.359375 -13.5 L 11.359375 -11.609375 L 9.28125 -11.609375 L 9.28125 0 Z M 7.234375 0 "/></g></g></g><g fill="#9f3f73" fill-opacity="1"><g transform="translate(56.949226, 24.902022)"><g/></g></g><g fill="#9f3f73" fill-opacity="1"><g transform="translate(63.016676, 24.902022)"><g><path d="M 1.71875 -4.859375 L 1.71875 -13.5 L 3.765625 -13.5 L 3.765625 -6.90625 L 2.734375 -4.859375 Z M 1.71875 -4.859375 "/></g></g></g><g fill="#9f3f73" fill-opacity="1"><g transform="translate(68.377021, 24.902022)"><g><path d="M 7.875 0.296875 C 6.613281 0.296875 5.519531 0.0664062 4.59375 -0.390625 C 3.675781 -0.859375 2.96875 -1.609375 2.46875 -2.640625 C 1.96875 -3.679688 1.71875 -5.050781 1.71875 -6.75 L 1.71875 -13.5 L 3.765625 -13.5 L 3.765625 -6.75 C 3.765625 -5.125 4.09375 -3.835938 4.75 -2.890625 C 5.414062 -1.953125 6.472656 -1.484375 7.921875 -1.484375 C 9.347656 -1.484375 10.394531 -1.953125 11.0625 -2.890625 C 11.726562 -3.835938 12.0625 -5.125 12.0625 -6.75 C 12.0625 -7.34375 12.050781 -7.9375 12.03125 -8.53125 C 12.007812 -9.125 11.929688 -9.664062 11.796875 -10.15625 C 11.671875 -10.65625 11.457031 -11.054688 11.15625 -11.359375 C 10.863281 -11.660156 10.445312 -11.8125 9.90625 -11.8125 C 9.507812 -11.8125 9.066406 -11.742188 8.578125 -11.609375 C 8.085938 -11.472656 7.65625 -11.300781 7.28125 -11.09375 L 7.28125 -13.046875 C 7.5625 -13.179688 7.945312 -13.328125 8.4375 -13.484375 C 8.9375 -13.648438 9.5 -13.734375 10.125 -13.734375 C 11.070312 -13.734375 11.816406 -13.550781 12.359375 -13.1875 C 12.910156 -12.832031 13.316406 -12.335938 13.578125 -11.703125 C 13.847656 -11.066406 14.023438 -10.328125 14.109375 -9.484375 C 14.191406 -8.640625 14.234375 -7.726562 14.234375 -6.75 C 14.234375 -4.5 13.660156 -2.757812 12.515625 -1.53125 C 11.367188 -0.3125 9.820312 0.296875 7.875 0.296875 Z M 7.875 0.296875 "/></g></g></g><g fill="#9f3f73" fill-opacity="1"><g transform="translate(83.750941, 24.902022)"><g><path d="M 2.390625 -13.5 L 10.84375 -13.5 L 10.84375 -11.953125 L 6.5625 0 L 4.40625 0 L 8.6875 -11.609375 L 0.34375 -11.609375 L 0.34375 -17.34375 L 2.390625 -17.34375 Z M 2.390625 -13.5 "/></g></g></g><g fill="#9f3f73" fill-opacity="1"><g transform="translate(95.384027, 24.902022)"><g><path d="M 2.09375 0 L 0.90625 -13.5 L 2.96875 -13.5 L 3.578125 -6.5625 L 5.15625 -7.046875 C 5.78125 -7.242188 6.25 -7.570312 6.5625 -8.03125 C 6.875 -8.5 7.066406 -9.160156 7.140625 -10.015625 L 7.453125 -13.5 L 9.515625 -13.5 L 9.234375 -10.421875 C 9.160156 -9.554688 9.035156 -8.789062 8.859375 -8.125 C 8.679688 -7.46875 8.335938 -6.898438 7.828125 -6.421875 C 7.328125 -5.941406 6.535156 -5.539062 5.453125 -5.21875 L 3.734375 -4.71875 L 4 -1.890625 L 6.859375 -1.890625 C 7.878906 -1.890625 8.816406 -2.101562 9.671875 -2.53125 C 10.523438 -2.957031 11.222656 -3.625 11.765625 -4.53125 C 12.316406 -5.445312 12.660156 -6.632812 12.796875 -8.09375 L 13.296875 -13.5 L 15.359375 -13.5 L 14.84375 -8.09375 C 14.800781 -7.519531 14.695312 -6.867188 14.53125 -6.140625 C 14.363281 -5.421875 14.101562 -4.703125 13.75 -3.984375 C 13.40625 -3.273438 12.9375 -2.613281 12.34375 -2 C 11.75 -1.394531 11.003906 -0.910156 10.109375 -0.546875 C 9.210938 -0.179688 8.128906 0 6.859375 0 Z M 2.09375 0 "/></g></g></g><path stroke-linecap="butt" transform="matrix(0.119034, 0, 0, 0.119034, 7.951799, 3.421881)" fill="none" stroke-linejoin="miter" d="M 38.767026 173.006745 L 38.767026 59.528465 L 96.457835 59.528465 C 109.453034 59.528465 119.133801 62.416287 125.46732 68.191931 C 131.768023 73.934759 134.95119 83.123284 134.95119 95.757505 L 134.95119 173.006745 Z M 55.962694 157.090907 L 117.68989 157.090907 L 117.68989 99.203202 C 117.68989 90.277207 115.720921 84.074952 111.750165 80.629256 C 107.77941 77.183559 102.299111 75.444302 95.276453 75.444302 L 55.962694 75.444302 Z M 166.553152 173.006745 L 166.553152 59.528465 L 183.814452 59.528465 L 183.814452 173.006745 Z M 271.400781 173.006745 L 271.400781 99.203202 C 271.400781 90.277207 269.398996 84.074952 265.461057 80.629256 C 261.490301 77.183559 255.977186 75.444302 248.921712 75.444302 L 202.946273 75.444302 L 202.946273 59.528465 L 250.103094 59.528465 C 263.131109 59.528465 272.811876 62.416287 279.112579 68.191931 C 285.446098 73.934759 288.596449 83.123284 288.596449 95.757505 L 288.596449 173.006745 Z M 364.697123 173.006745 L 364.697123 75.444302 L 305.857749 75.444302 L 305.857749 59.528465 L 399.383804 59.528465 L 399.383804 75.444302 L 381.958423 75.444302 L 381.958423 173.006745 Z M 364.697123 173.006745 " stroke="#f8a9ad" stroke-width="7.186751" stroke-opacity="1" stroke-miterlimit="4"/><path stroke-linecap="butt" transform="matrix(0.119034, 0, 0, 0.119034, 7.951799, 3.421881)" fill="none" stroke-linejoin="miter" d="M 469.511937 132.216258 L 469.511937 59.528465 L 486.773237 59.528465 L 486.773237 114.922142 L 478.175403 132.216258 Z M 566.286791 175.467957 C 555.687172 175.467957 546.498647 173.531803 538.786849 169.62668 C 531.075052 165.721557 525.102511 159.453671 520.869226 150.790205 C 516.635942 142.061106 514.535707 130.575451 514.535707 116.300421 L 514.535707 59.528465 L 531.797007 59.528465 L 531.797007 116.300421 C 531.797007 129.951943 534.586381 140.74846 540.132312 148.657154 C 545.678243 156.598665 554.538606 160.56942 566.647769 160.56942 C 578.658483 160.56942 587.48603 156.598665 593.097593 148.657154 C 598.741973 140.74846 601.564163 129.951943 601.564163 116.300421 C 601.564163 111.312365 601.465714 106.324309 601.236001 101.336252 C 601.039104 96.31538 600.415597 91.753934 599.332664 87.619098 C 598.24973 83.451445 596.477658 80.104197 593.98363 77.544537 C 591.489602 74.984876 587.945456 73.705046 583.351194 73.705046 C 580.036762 73.705046 576.328536 74.295737 572.226516 75.444302 C 568.157312 76.592868 564.514718 78.069595 561.331551 79.841668 L 561.331551 63.367956 C 563.727131 62.21939 567.008747 60.972376 571.143583 59.626914 C 575.344051 58.281451 580.036762 57.625128 585.287347 57.625128 C 593.196042 57.625128 599.463928 59.134671 604.058191 62.153758 C 608.619637 65.140028 612.032518 69.340497 614.296833 74.689531 C 616.528331 80.071381 618.005059 86.273635 618.694198 93.361926 C 619.416153 100.450216 619.777131 108.096381 619.777131 116.300421 C 619.777131 135.202529 614.92034 149.80572 605.272389 160.077178 C 595.624438 170.348636 582.629239 175.467957 566.286791 175.467957 Z M 649.442939 59.528465 L 720.391476 59.528465 L 720.391476 72.589297 L 684.523414 173.006745 L 666.343262 173.006745 L 702.375405 75.444302 L 632.181639 75.444302 L 632.181639 27.335813 L 649.442939 27.335813 Z M 744.708251 173.006745 L 734.732138 59.528465 L 751.960622 59.528465 L 757.145575 117.777148 L 770.370487 113.773577 C 775.621073 112.099953 779.559012 109.343395 782.184305 105.438272 C 784.809598 101.533149 786.417589 96.020035 787.041096 88.866112 L 789.699205 59.528465 L 806.960505 59.528465 L 804.663374 85.420415 C 804.039867 92.705602 802.956934 99.13757 801.513023 104.683501 C 800.036296 110.229432 797.148474 115.020591 792.882373 119.056979 C 788.616272 123.093366 781.954592 126.440614 772.864515 129.098723 L 758.491038 133.332008 L 760.591272 157.090907 L 784.743965 157.090907 C 793.308983 157.090907 801.152045 155.318835 808.273152 151.77469 C 815.459891 148.164912 821.333983 142.553349 825.928245 134.874367 C 830.522508 127.195386 833.41033 117.219274 834.591712 104.978846 L 838.79218 59.528465 L 856.05348 59.528465 L 851.787379 104.978846 C 851.426401 109.835638 850.540365 115.315936 849.12927 121.386926 C 847.718175 127.457915 845.552309 133.496089 842.631671 139.501446 C 839.678216 145.473987 835.740277 151.052734 830.752221 156.172055 C 825.764165 161.225744 819.463462 165.327763 811.915745 168.412482 C 804.400845 171.464385 795.343585 173.006745 784.743965 173.006745 Z M 744.708251 173.006745 " stroke="#f8a9ad" stroke-width="7.186751" stroke-opacity="1" stroke-miterlimit="4"/></svg>