<svg xmlns="http://www.w3.org/2000/svg" xmlns:xlink="http://www.w3.org/1999/xlink" width="162" zoomAndPan="magnify" viewBox="0 0 121.5 34.499999" height="46" preserveAspectRatio="xMidYMid meet" version="1.0"><defs><g/><clipPath id="15283540ee"><path d="M 4.035156 2.238281 L 45 2.238281 L 45 15.601562 L 4.035156 15.601562 Z M 4.035156 2.238281 " clip-rule="nonzero"/></clipPath><clipPath id="75f0643655"><path d="M 28 2.238281 L 51.546875 2.238281 L 51.546875 15.601562 L 28 15.601562 Z M 28 2.238281 " clip-rule="nonzero"/></clipPath><clipPath id="417abf26d3"><path d="M 0.621094 5 L 61 5 L 61 32 L 0.621094 32 Z M 0.621094 5 " clip-rule="nonzero"/></clipPath><clipPath id="f24ac507e1"><path d="M 58 0 L 120.386719 0 L 120.386719 32 L 58 32 Z M 58 0 " clip-rule="nonzero"/></clipPath></defs><g clip-path="url(#15283540ee)"><path fill="#ffc9ac" d="M 4.757812 15.476562 L 24.136719 3.195312 C 24.136719 3.195312 43.515625 15.476562 43.515625 15.476562 C 43.714844 15.601562 43.984375 15.546875 44.113281 15.347656 C 44.242188 15.152344 44.1875 14.890625 43.984375 14.761719 C 43.984375 14.761719 24.371094 2.335938 24.371094 2.335938 C 24.230469 2.246094 24.042969 2.246094 23.902344 2.335938 C 23.902344 2.335938 4.289062 14.761719 4.289062 14.761719 C 4.089844 14.890625 4.03125 15.152344 4.160156 15.347656 C 4.289062 15.546875 4.558594 15.601562 4.757812 15.476562 Z M 4.757812 15.476562 " fill-opacity="1" fill-rule="evenodd"/></g><g clip-path="url(#75f0643655)"><path fill="#ffc9ac" d="M 28.929688 5.707031 L 32.492188 3.449219 C 32.492188 3.449219 50.8125 15.21875 50.8125 15.21875 C 51.011719 15.347656 51.28125 15.292969 51.410156 15.097656 C 51.542969 14.902344 51.488281 14.640625 51.289062 14.511719 C 51.289062 14.511719 32.730469 2.585938 32.730469 2.585938 C 32.585938 2.496094 32.402344 2.496094 32.257812 2.585938 C 32.257812 2.585938 30.679688 3.585938 28.457031 4.996094 C 28.257812 5.121094 28.199219 5.382812 28.328125 5.582031 C 28.457031 5.777344 28.726562 5.832031 28.929688 5.707031 Z M 28.929688 5.707031 " fill-opacity="1" fill-rule="evenodd"/></g><path fill="#ffc9ac" d="M 15.285156 8.425781 L 15.285156 5.222656 C 15.285156 4.988281 15.089844 4.800781 14.851562 4.800781 L 11.246094 4.800781 C 11.007812 4.800781 10.816406 4.988281 10.816406 5.222656 L 10.816406 10.859375 C 10.816406 11.089844 11.007812 11.28125 11.246094 11.28125 C 11.484375 11.28125 11.679688 11.089844 11.679688 10.859375 L 11.679688 5.644531 C 11.679688 5.644531 14.421875 5.644531 14.421875 5.644531 L 14.421875 8.425781 C 14.421875 8.65625 14.617188 8.847656 14.851562 8.847656 C 15.089844 8.847656 15.285156 8.65625 15.285156 8.425781 Z M 15.285156 8.425781 " fill-opacity="1" fill-rule="evenodd"/><g fill="#9f3f73" fill-opacity="1"><g transform="translate(5.397895, 26.7755)"><g><path d="M 1.8125 0 L 1.8125 -15.296875 L 9.578125 -15.296875 C 11.335938 -15.296875 12.644531 -14.90625 13.5 -14.125 C 14.351562 -13.351562 14.78125 -12.113281 14.78125 -10.40625 L 14.78125 0 Z M 4.125 -2.140625 L 12.453125 -2.140625 L 12.453125 -9.9375 C 12.453125 -11.144531 12.179688 -11.976562 11.640625 -12.4375 C 11.109375 -12.90625 10.367188 -13.140625 9.421875 -13.140625 L 4.125 -13.140625 Z M 4.125 -2.140625 "/></g></g></g><g fill="#9f3f73" fill-opacity="1"><g transform="translate(22.231929, 26.7755)"><g><path d="M 2.203125 0 L 2.203125 -15.296875 L 4.515625 -15.296875 L 4.515625 0 Z M 2.203125 0 "/></g></g></g><g fill="#9f3f73" fill-opacity="1"><g transform="translate(28.944891, 26.7755)"><g><path d="M 9.609375 0 L 9.609375 -9.9375 C 9.609375 -11.144531 9.335938 -11.976562 8.796875 -12.4375 C 8.265625 -12.90625 7.53125 -13.140625 6.59375 -13.140625 L 0.390625 -13.140625 L 0.390625 -15.296875 L 6.734375 -15.296875 C 8.492188 -15.296875 9.800781 -14.90625 10.65625 -14.125 C 11.507812 -13.351562 11.9375 -12.113281 11.9375 -10.40625 L 11.9375 0 Z M 9.609375 0 "/></g></g></g><g fill="#9f3f73" fill-opacity="1"><g transform="translate(42.938831, 26.7755)"><g><path d="M 8.1875 0 L 8.1875 -13.140625 L 0.265625 -13.140625 L 0.265625 -15.296875 L 12.859375 -15.296875 L 12.859375 -13.140625 L 10.515625 -13.140625 L 10.515625 0 Z M 8.1875 0 "/></g></g></g><g fill="#9f3f73" fill-opacity="1"><g transform="translate(56.44221, 26.7755)"><g/></g></g><g fill="#9f3f73" fill-opacity="1"><g transform="translate(63.31008, 26.7755)"><g><path d="M 1.9375 -5.5 L 1.9375 -15.296875 L 4.265625 -15.296875 L 4.265625 -7.828125 L 3.09375 -5.5 Z M 1.9375 -5.5 "/></g></g></g><g fill="#9f3f73" fill-opacity="1"><g transform="translate(69.37756, 26.7755)"><g><path d="M 8.90625 0.328125 C 7.476562 0.328125 6.242188 0.0664062 5.203125 -0.453125 C 4.160156 -0.972656 3.351562 -1.816406 2.78125 -2.984375 C 2.21875 -4.160156 1.9375 -5.710938 1.9375 -7.640625 L 1.9375 -15.296875 L 4.265625 -15.296875 L 4.265625 -7.640625 C 4.265625 -5.796875 4.640625 -4.335938 5.390625 -3.265625 C 6.140625 -2.203125 7.332031 -1.671875 8.96875 -1.671875 C 10.582031 -1.671875 11.765625 -2.203125 12.515625 -3.265625 C 13.273438 -4.335938 13.65625 -5.796875 13.65625 -7.640625 C 13.65625 -8.316406 13.640625 -8.988281 13.609375 -9.65625 C 13.585938 -10.332031 13.503906 -10.945312 13.359375 -11.5 C 13.210938 -12.0625 12.972656 -12.515625 12.640625 -12.859375 C 12.304688 -13.203125 11.828125 -13.375 11.203125 -13.375 C 10.753906 -13.375 10.253906 -13.296875 9.703125 -13.140625 C 9.160156 -12.984375 8.671875 -12.785156 8.234375 -12.546875 L 8.234375 -14.78125 C 8.566406 -14.925781 9.007812 -15.085938 9.5625 -15.265625 C 10.125 -15.453125 10.757812 -15.546875 11.46875 -15.546875 C 12.53125 -15.546875 13.367188 -15.34375 13.984375 -14.9375 C 14.609375 -14.53125 15.070312 -13.96875 15.375 -13.25 C 15.675781 -12.53125 15.875 -11.691406 15.96875 -10.734375 C 16.0625 -9.773438 16.109375 -8.742188 16.109375 -7.640625 C 16.109375 -5.097656 15.457031 -3.132812 14.15625 -1.75 C 12.863281 -0.363281 11.113281 0.328125 8.90625 0.328125 Z M 8.90625 0.328125 "/></g></g></g><g fill="#9f3f73" fill-opacity="1"><g transform="translate(86.77961, 26.7755)"><g><path d="M 2.71875 -15.296875 L 12.265625 -15.296875 L 12.265625 -13.53125 L 7.4375 0 L 4.984375 0 L 9.84375 -13.140625 L 0.390625 -13.140625 L 0.390625 -19.625 L 2.71875 -19.625 Z M 2.71875 -15.296875 "/></g></g></g><g fill="#9f3f73" fill-opacity="1"><g transform="translate(99.947335, 26.7755)"><g><path d="M 2.375 0 L 1.03125 -15.296875 L 3.359375 -15.296875 L 4.0625 -7.4375 L 5.84375 -7.984375 C 6.539062 -8.203125 7.066406 -8.570312 7.421875 -9.09375 C 7.773438 -9.625 7.992188 -10.375 8.078125 -11.34375 L 8.453125 -15.296875 L 10.765625 -15.296875 L 10.453125 -11.796875 C 10.367188 -10.816406 10.226562 -9.953125 10.03125 -9.203125 C 9.832031 -8.453125 9.441406 -7.804688 8.859375 -7.265625 C 8.285156 -6.722656 7.390625 -6.273438 6.171875 -5.921875 L 4.234375 -5.34375 L 4.515625 -2.140625 L 7.78125 -2.140625 C 8.925781 -2.140625 9.976562 -2.378906 10.9375 -2.859375 C 11.90625 -3.347656 12.695312 -4.109375 13.3125 -5.140625 C 13.9375 -6.171875 14.328125 -7.515625 14.484375 -9.171875 L 15.0625 -15.296875 L 17.375 -15.296875 L 16.8125 -9.171875 C 16.757812 -8.515625 16.640625 -7.773438 16.453125 -6.953125 C 16.265625 -6.140625 15.972656 -5.328125 15.578125 -4.515625 C 15.179688 -3.710938 14.644531 -2.960938 13.96875 -2.265625 C 13.300781 -1.578125 12.457031 -1.023438 11.4375 -0.609375 C 10.425781 -0.203125 9.207031 0 7.78125 0 Z M 2.375 0 "/></g></g></g><g clip-path="url(#417abf26d3)"><path stroke-linecap="butt" transform="matrix(0.742328, 0, 0, 0.742328, 1.540001, 2.758762)" fill="none" stroke-linejoin="miter" d="M 6.281757 30.998116 L 6.281757 10.402015 L 16.753459 10.402015 C 19.116169 10.402015 20.868469 10.928231 22.020883 11.975402 C 23.168034 13.01731 23.746872 14.685415 23.746872 16.974455 L 23.746872 30.998116 Z M 9.407481 28.114452 L 20.610623 28.114452 L 20.610623 17.605915 C 20.610623 15.979907 20.252796 14.853804 19.53188 14.232869 C 18.810964 13.606672 17.816415 13.290942 16.542972 13.290942 L 9.407481 13.290942 Z M 29.477366 30.998116 L 29.477366 10.402015 L 32.613614 10.402015 L 32.613614 30.998116 Z M 48.510605 30.998116 L 48.510605 17.605915 C 48.510605 15.979907 48.147516 14.853804 47.431862 14.232869 C 46.710946 13.606672 45.711135 13.290942 44.43243 13.290942 L 36.081379 13.290942 L 36.081379 10.402015 L 44.642916 10.402015 C 47.010889 10.402015 48.768451 10.928231 49.91034 11.975402 C 51.057491 13.01731 51.636329 14.685415 51.636329 16.974455 L 51.636329 30.998116 Z M 65.43898 30.998116 L 65.43898 13.290942 L 54.762053 13.290942 L 54.762053 10.402015 L 71.743049 10.402015 L 71.743049 13.290942 L 68.575228 13.290942 L 68.575228 30.998116 Z M 65.43898 30.998116 " stroke="#f8a9ad" stroke-width="1.304873" stroke-opacity="1" stroke-miterlimit="4"/></g><g clip-path="url(#f24ac507e1)"><path stroke-linecap="butt" transform="matrix(0.742328, 0, 0, 0.742328, 1.540001, 2.758762)" fill="none" stroke-linejoin="miter" d="M 84.466957 23.594255 L 84.466957 10.402015 L 87.597943 10.402015 L 87.597943 20.458006 L 86.035081 23.594255 Z M 102.032053 31.450662 C 100.106101 31.450662 98.443258 31.098097 97.038261 30.387706 C 95.638526 29.682576 94.554521 28.540687 93.786245 26.9673 C 93.023232 25.38339 92.639094 23.299574 92.639094 20.705328 L 92.639094 10.402015 L 95.775342 10.402015 L 95.775342 20.705328 C 95.775342 23.183806 96.275248 25.146592 97.285583 26.583163 C 98.290656 28.019733 99.900877 28.740649 102.100461 28.740649 C 104.278996 28.740649 105.878693 28.019733 106.899552 26.583163 C 107.925674 25.146592 108.436103 23.183806 108.436103 20.705328 C 108.436103 19.800236 108.415055 18.895144 108.37822 17.990052 C 108.341385 17.079698 108.225617 16.253539 108.030917 15.50105 C 107.836217 14.748561 107.515225 14.13815 107.062679 13.67508 C 106.610133 13.206747 105.96815 12.975212 105.131466 12.975212 C 104.526317 12.975212 103.852761 13.080455 103.110796 13.290942 C 102.368831 13.501428 101.711061 13.764537 101.132223 14.090791 L 101.132223 11.101883 C 101.568982 10.891396 102.163607 10.665123 102.916096 10.417802 C 103.673847 10.175742 104.531579 10.054712 105.484031 10.054712 C 106.920601 10.054712 108.057228 10.328345 108.888649 10.880872 C 109.720071 11.422875 110.341006 12.180626 110.746192 13.154126 C 111.156641 14.127626 111.419749 15.25899 111.546041 16.542958 C 111.677595 17.826925 111.740741 19.216136 111.740741 20.705328 C 111.740741 24.136257 110.86196 26.788387 109.10966 28.656454 C 107.35736 30.51926 104.999912 31.450662 102.032053 31.450662 Z M 117.123933 10.402015 L 130.000442 10.402015 L 130.000442 12.77525 L 123.49641 30.998116 L 120.191773 30.998116 L 126.73264 13.290942 L 113.992946 13.290942 L 113.992946 4.561016 L 117.123933 4.561016 Z M 134.415396 30.998116 L 132.605213 10.402015 L 135.730937 10.402015 L 136.672864 20.97896 L 139.077671 20.24752 C 140.030123 19.947577 140.740515 19.442409 141.219371 18.737279 C 141.692966 18.026888 141.987647 17.027077 142.103415 15.727323 L 142.587533 10.402015 L 145.71852 10.402015 L 145.302809 15.101126 C 145.187041 16.42719 144.992341 17.590128 144.723971 18.600463 C 144.460863 19.605536 143.939909 20.473793 143.161109 21.205233 C 142.387571 21.936674 141.177274 22.547085 139.530217 23.031203 L 136.920185 23.799479 L 137.304323 28.114452 L 141.687704 28.114452 C 143.234779 28.114452 144.660825 27.788198 145.955317 27.146214 C 147.260333 26.493706 148.328552 25.472846 149.159973 24.078374 C 149.996657 22.683901 150.522873 20.873717 150.73336 18.647823 L 151.496373 10.402015 L 154.62736 10.402015 L 153.859084 18.647823 C 153.790676 19.531866 153.627549 20.526414 153.374965 21.631468 C 153.117119 22.73126 152.722457 23.82579 152.190979 24.920319 C 151.6595 26.004325 150.938584 27.01466 150.033492 27.9408 C 149.1284 28.866941 147.991774 29.608906 146.618349 30.166695 C 145.255449 30.724484 143.608393 30.998116 141.687704 30.998116 Z M 134.415396 30.998116 " stroke="#f8a9ad" stroke-width="1.304873" stroke-opacity="1" stroke-miterlimit="4"/></g></svg>