<svg xmlns="http://www.w3.org/2000/svg" xmlns:xlink="http://www.w3.org/1999/xlink" width="500" zoomAndPan="magnify" viewBox="0 0 375 374.999991" height="500" preserveAspectRatio="xMidYMid meet" version="1.0"><defs><g/><clipPath id="7d03243c08"><path d="M 160 116 L 262.5 116 L 262.5 183 L 160 183 Z M 160 116 " clip-rule="nonzero"/></clipPath><clipPath id="824c4bac0a"><path d="M 117 133 L 186 133 L 186 230.472656 L 117 230.472656 Z M 117 133 " clip-rule="nonzero"/></clipPath><clipPath id="490265d1b8"><path d="M 174.75 141.667969 L 262.429688 141.667969 L 262.429688 227.167969 L 174.75 227.167969 Z M 174.75 141.667969 " clip-rule="nonzero"/></clipPath></defs><rect x="-37.5" width="450" fill="#ffffff" y="-37.499999" height="449.999989" fill-opacity="1"/><rect x="-37.5" width="450" fill="#ffffff" y="-37.499999" height="449.999989" fill-opacity="1"/><rect x="-37.5" width="450" fill="#000000" y="-37.499999" height="449.999989" fill-opacity="1"/><path fill="#ffffff" d="M 140.160156 179.773438 C 133.058594 152.964844 141.996094 126.675781 160.785156 112.308594 L 164.765625 127.34375 C 150.011719 141.371094 143.453125 164.078125 149.574219 187.191406 C 153.71875 202.835938 162.9375 215.894531 174.707031 224.667969 C 158.507812 215.75 145.449219 199.742188 140.160156 179.773438 Z M 140.160156 179.773438 " fill-opacity="1" fill-rule="evenodd"/><path fill="#ffffff" d="M 157.671875 149.273438 C 167.269531 122.722656 189.667969 105.171875 213.265625 103.007812 L 207.882812 117.898438 C 187.777344 121.929688 169.375 137.707031 161.097656 160.601562 C 155.496094 176.097656 155.523438 192.105469 160.097656 205.839844 C 151.992188 189.617188 150.519531 169.050781 157.671875 149.273438 Z M 157.671875 149.273438 " fill-opacity="1" fill-rule="evenodd"/><g clip-path="url(#7d03243c08)"><path fill="#ffffff" d="M 190.550781 132.929688 C 213.585938 115.4375 241.949219 112.40625 262.5 123.097656 L 249.582031 132.910156 C 230.820312 125.65625 206.742188 129.304688 186.882812 144.386719 C 173.441406 154.59375 164.3125 168.226562 160.207031 182.339844 C 162.847656 164.234375 173.398438 145.957031 190.550781 132.929688 Z M 190.550781 132.929688 " fill-opacity="1" fill-rule="evenodd"/></g><g clip-path="url(#824c4bac0a)"><path fill="#ffffff" d="M 133.425781 202.683594 C 115.210938 181.066406 112.503906 153.941406 124.273438 133.933594 L 134.492188 146.058594 C 126.417969 164.253906 129.859375 187.25 145.566406 205.886719 C 156.195312 218.503906 170.554688 226.886719 185.519531 230.441406 C 166.273438 228.40625 146.988281 218.785156 133.425781 202.683594 Z M 133.425781 202.683594 " fill-opacity="1" fill-rule="evenodd"/></g><g clip-path="url(#490265d1b8)"><path fill="#ffffff" d="M 252.980469 217.273438 L 250.917969 217.273438 C 250.78125 217.960938 250.585938 218.632812 250.332031 219.289062 C 250.082031 219.941406 249.773438 220.570312 249.410156 221.171875 C 249.046875 221.769531 248.632812 222.335938 248.171875 222.863281 C 247.710938 223.394531 247.207031 223.878906 246.664062 224.320312 C 246.117188 224.761719 245.535156 225.15625 244.921875 225.496094 C 244.308594 225.835938 243.667969 226.121094 243.003906 226.351562 C 242.339844 226.582031 241.660156 226.753906 240.96875 226.863281 C 240.273438 226.976562 239.574219 227.027344 238.871094 227.019531 L 198.375 227.019531 C 197.679688 227.015625 196.992188 226.953125 196.304688 226.832031 C 195.621094 226.710938 194.953125 226.535156 194.296875 226.296875 C 193.644531 226.0625 193.015625 225.773438 192.410156 225.429688 C 191.804688 225.085938 191.234375 224.695312 190.699219 224.253906 C 190.160156 223.816406 189.664062 223.332031 189.210938 222.804688 C 188.757812 222.28125 188.351562 221.722656 187.992188 221.125 C 187.632812 220.53125 187.328125 219.910156 187.078125 219.265625 C 186.824219 218.617188 186.632812 217.953125 186.492188 217.273438 L 184.269531 217.273438 C 183.644531 217.261719 183.023438 217.191406 182.410156 217.0625 C 181.796875 216.929688 181.203125 216.742188 180.628906 216.5 C 180.050781 216.253906 179.503906 215.953125 178.988281 215.605469 C 178.46875 215.253906 177.988281 214.855469 177.546875 214.410156 C 177.109375 213.96875 176.714844 213.488281 176.367188 212.964844 C 176.019531 212.445312 175.722656 211.898438 175.484375 211.320312 C 175.242188 210.746094 175.058594 210.148438 174.933594 209.539062 C 174.808594 208.925781 174.742188 208.308594 174.734375 207.683594 L 174.734375 181.894531 C 174.746094 181.277344 174.816406 180.664062 174.945312 180.058594 C 175.074219 179.449219 175.261719 178.863281 175.503906 178.292969 C 175.75 177.722656 176.046875 177.179688 176.394531 176.667969 C 176.742188 176.152344 177.136719 175.679688 177.578125 175.242188 C 178.019531 174.804688 178.5 174.414062 179.015625 174.070312 C 179.53125 173.726562 180.078125 173.433594 180.652344 173.195312 C 181.222656 172.957031 181.816406 172.773438 182.425781 172.652344 C 183.03125 172.527344 183.648438 172.460938 184.269531 172.457031 L 186.199219 172.457031 L 186.199219 163.78125 C 186.199219 163.269531 186.375 162.828125 186.726562 162.453125 L 205.691406 142.242188 L 205.714844 142.226562 C 205.867188 142.074219 206.042969 141.953125 206.234375 141.859375 C 206.273438 141.839844 206.304688 141.804688 206.34375 141.785156 C 206.589844 141.679688 206.84375 141.625 207.113281 141.625 L 249.132812 141.625 C 249.390625 141.625 249.640625 141.675781 249.878906 141.773438 C 250.117188 141.871094 250.328125 142.011719 250.511719 142.195312 C 250.695312 142.378906 250.835938 142.589844 250.933594 142.828125 C 251.035156 143.066406 251.082031 143.3125 251.082031 143.574219 L 251.082031 172.457031 L 252.980469 172.457031 C 253.601562 172.453125 254.21875 172.511719 254.832031 172.632812 C 255.445312 172.75 256.039062 172.929688 256.613281 173.164062 C 257.191406 173.402344 257.738281 173.691406 258.257812 174.035156 C 258.777344 174.378906 259.257812 174.769531 259.703125 175.207031 C 260.144531 175.648438 260.539062 176.125 260.886719 176.640625 C 261.238281 177.15625 261.53125 177.699219 261.773438 178.273438 C 262.011719 178.847656 262.195312 179.4375 262.320312 180.050781 C 262.445312 180.660156 262.507812 181.273438 262.511719 181.894531 L 262.511719 207.683594 C 262.515625 208.308594 262.453125 208.929688 262.335938 209.546875 C 262.214844 210.160156 262.035156 210.757812 261.796875 211.339844 C 261.558594 211.917969 261.265625 212.46875 260.917969 212.992188 C 260.570312 213.515625 260.175781 214 259.734375 214.445312 C 259.289062 214.890625 258.808594 215.289062 258.289062 215.636719 C 257.765625 215.988281 257.21875 216.285156 256.636719 216.527344 C 256.058594 216.769531 255.460938 216.957031 254.84375 217.082031 C 254.230469 217.207031 253.609375 217.269531 252.980469 217.273438 Z M 198.375 223.125 L 238.871094 223.125 C 239.402344 223.136719 239.929688 223.097656 240.449219 223.007812 C 240.972656 222.917969 241.480469 222.78125 241.976562 222.589844 C 242.46875 222.402344 242.941406 222.167969 243.390625 221.890625 C 243.839844 221.609375 244.261719 221.289062 244.648438 220.929688 C 245.035156 220.566406 245.382812 220.171875 245.691406 219.742188 C 246.003906 219.316406 246.269531 218.859375 246.492188 218.378906 C 246.714844 217.902344 246.886719 217.402344 247.011719 216.890625 C 247.136719 216.375 247.210938 215.855469 247.234375 215.328125 L 247.234375 202.882812 L 190.164062 202.882812 L 190.164062 215.273438 C 190.183594 215.796875 190.257812 216.3125 190.378906 216.820312 C 190.5 217.332031 190.667969 217.824219 190.882812 218.304688 C 191.101562 218.78125 191.359375 219.234375 191.664062 219.660156 C 191.96875 220.089844 192.308594 220.484375 192.6875 220.847656 C 193.066406 221.210938 193.476562 221.53125 193.917969 221.816406 C 194.359375 222.101562 194.824219 222.339844 195.3125 222.535156 C 195.796875 222.730469 196.300781 222.878906 196.816406 222.976562 C 197.332031 223.078125 197.851562 223.125 198.375 223.125 Z M 205.164062 148.496094 L 192.980469 161.480469 L 205.164062 161.480469 Z M 247.183594 145.519531 L 209.0625 145.519531 L 209.0625 163.425781 C 209.0625 163.683594 209.011719 163.933594 208.914062 164.171875 C 208.816406 164.410156 208.675781 164.621094 208.492188 164.800781 C 208.308594 164.984375 208.097656 165.125 207.859375 165.222656 C 207.621094 165.324219 207.371094 165.371094 207.113281 165.371094 L 190.101562 165.371094 L 190.101562 172.457031 L 247.183594 172.457031 Z M 258.613281 181.894531 C 258.609375 181.53125 258.570312 181.167969 258.496094 180.808594 C 258.421875 180.449219 258.3125 180.101562 258.171875 179.761719 C 258.027344 179.425781 257.851562 179.105469 257.648438 178.800781 C 257.441406 178.496094 257.207031 178.21875 256.945312 177.960938 C 256.683594 177.703125 256.398438 177.472656 256.09375 177.269531 C 255.785156 177.070312 255.464844 176.898438 255.121094 176.761719 C 254.78125 176.621094 254.433594 176.519531 254.070312 176.449219 C 253.710938 176.378906 253.347656 176.34375 252.980469 176.347656 L 249.179688 176.347656 C 249.164062 176.347656 249.148438 176.355469 249.132812 176.355469 L 188.148438 176.355469 C 188.132812 176.355469 188.121094 176.347656 188.101562 176.347656 L 184.269531 176.347656 C 183.902344 176.355469 183.542969 176.394531 183.1875 176.472656 C 182.828125 176.546875 182.480469 176.65625 182.144531 176.796875 C 181.808594 176.9375 181.488281 177.109375 181.1875 177.3125 C 180.882812 177.515625 180.601562 177.742188 180.339844 178 C 180.082031 178.253906 179.847656 178.53125 179.640625 178.832031 C 179.4375 179.132812 179.257812 179.449219 179.113281 179.785156 C 178.96875 180.117188 178.855469 180.460938 178.773438 180.816406 C 178.691406 181.171875 178.648438 181.53125 178.636719 181.894531 L 178.636719 207.683594 C 178.636719 208.050781 178.675781 208.417969 178.75 208.78125 C 178.824219 209.144531 178.929688 209.496094 179.074219 209.839844 C 179.214844 210.183594 179.386719 210.507812 179.59375 210.816406 C 179.796875 211.125 180.03125 211.410156 180.292969 211.675781 C 180.550781 211.9375 180.835938 212.175781 181.140625 212.382812 C 181.449219 212.589844 181.773438 212.769531 182.113281 212.914062 C 182.453125 213.0625 182.804688 213.175781 183.167969 213.253906 C 183.53125 213.332031 183.898438 213.375 184.269531 213.382812 L 186.261719 213.382812 L 186.261719 200.9375 C 186.261719 200.675781 186.3125 200.429688 186.410156 200.191406 C 186.507812 199.953125 186.652344 199.742188 186.832031 199.558594 C 187.015625 199.375 187.226562 199.234375 187.464844 199.136719 C 187.707031 199.039062 187.953125 198.988281 188.210938 198.988281 L 249.1875 198.988281 C 249.445312 198.988281 249.695312 199.039062 249.933594 199.136719 C 250.171875 199.234375 250.382812 199.375 250.566406 199.558594 C 250.746094 199.742188 250.890625 199.953125 250.988281 200.191406 C 251.085938 200.429688 251.136719 200.675781 251.136719 200.9375 L 251.136719 213.382812 L 252.980469 213.382812 C 253.351562 213.378906 253.71875 213.339844 254.085938 213.261719 C 254.449219 213.1875 254.804688 213.078125 255.144531 212.933594 C 255.488281 212.789062 255.8125 212.613281 256.121094 212.402344 C 256.429688 212.195312 256.714844 211.957031 256.976562 211.695312 C 257.238281 211.429688 257.472656 211.140625 257.675781 210.832031 C 257.878906 210.523438 258.054688 210.195312 258.195312 209.851562 C 258.335938 209.507812 258.4375 209.152344 258.511719 208.785156 C 258.582031 208.421875 258.613281 208.054688 258.613281 207.683594 Z M 258.613281 181.894531 " fill-opacity="1" fill-rule="nonzero"/></g><g fill="#ffffff" fill-opacity="1"><g transform="translate(141.757945, 253.986853)"><g><path d="M 1.4375 0 L 1.4375 -12.21875 L 7.65625 -12.21875 C 9.0625 -12.21875 10.101562 -11.90625 10.78125 -11.28125 C 11.46875 -10.664062 11.8125 -9.675781 11.8125 -8.3125 L 11.8125 0 Z M 3.296875 -1.71875 L 9.953125 -1.71875 L 9.953125 -7.953125 C 9.953125 -8.910156 9.738281 -9.570312 9.3125 -9.9375 C 8.882812 -10.3125 8.289062 -10.5 7.53125 -10.5 L 3.296875 -10.5 Z M 3.296875 -1.71875 "/></g></g></g><g fill="#ffffff" fill-opacity="1"><g transform="translate(155.216403, 253.986853)"><g><path d="M 1.75 0 L 1.75 -12.21875 L 3.609375 -12.21875 L 3.609375 0 Z M 1.75 0 "/></g></g></g><g fill="#ffffff" fill-opacity="1"><g transform="translate(160.58327, 253.986853)"><g><path d="M 7.671875 0 L 7.671875 -7.953125 C 7.671875 -8.910156 7.457031 -9.570312 7.03125 -9.9375 C 6.613281 -10.3125 6.023438 -10.5 5.265625 -10.5 L 0.3125 -10.5 L 0.3125 -12.21875 L 5.390625 -12.21875 C 6.796875 -12.21875 7.835938 -11.90625 8.515625 -11.28125 C 9.191406 -10.664062 9.53125 -9.675781 9.53125 -8.3125 L 9.53125 0 Z M 7.671875 0 "/></g></g></g><g fill="#ffffff" fill-opacity="1"><g transform="translate(171.771129, 253.986853)"><g><path d="M 6.546875 0 L 6.546875 -10.5 L 0.203125 -10.5 L 0.203125 -12.21875 L 10.28125 -12.21875 L 10.28125 -10.5 L 8.40625 -10.5 L 8.40625 0 Z M 6.546875 0 "/></g></g></g><g fill="#ffffff" fill-opacity="1"><g transform="translate(182.566799, 253.986853)"><g/></g></g><g fill="#ffffff" fill-opacity="1"><g transform="translate(189.440523, 253.986853)"><g><path d="M 1.546875 -4.390625 L 1.546875 -12.21875 L 3.40625 -12.21875 L 3.40625 -6.25 L 2.484375 -4.390625 Z M 1.546875 -4.390625 "/></g></g></g><g fill="#ffffff" fill-opacity="1"><g transform="translate(194.291347, 253.986853)"><g><path d="M 7.125 0.265625 C 5.976562 0.265625 4.988281 0.0546875 4.15625 -0.359375 C 3.320312 -0.773438 2.675781 -1.453125 2.21875 -2.390625 C 1.769531 -3.328125 1.546875 -4.566406 1.546875 -6.109375 L 1.546875 -12.21875 L 3.40625 -12.21875 L 3.40625 -6.109375 C 3.40625 -4.640625 3.703125 -3.476562 4.296875 -2.625 C 4.898438 -1.769531 5.851562 -1.34375 7.15625 -1.34375 C 8.457031 -1.34375 9.410156 -1.769531 10.015625 -2.625 C 10.617188 -3.476562 10.921875 -4.640625 10.921875 -6.109375 C 10.921875 -6.648438 10.910156 -7.1875 10.890625 -7.71875 C 10.867188 -8.257812 10.796875 -8.75 10.671875 -9.1875 C 10.554688 -9.632812 10.363281 -9.992188 10.09375 -10.265625 C 9.832031 -10.546875 9.453125 -10.6875 8.953125 -10.6875 C 8.597656 -10.6875 8.195312 -10.625 7.75 -10.5 C 7.3125 -10.375 6.921875 -10.21875 6.578125 -10.03125 L 6.578125 -11.8125 C 6.835938 -11.9375 7.191406 -12.066406 7.640625 -12.203125 C 8.085938 -12.347656 8.597656 -12.421875 9.171875 -12.421875 C 10.015625 -12.421875 10.6875 -12.257812 11.1875 -11.9375 C 11.6875 -11.613281 12.054688 -11.160156 12.296875 -10.578125 C 12.535156 -10.003906 12.691406 -9.335938 12.765625 -8.578125 C 12.835938 -7.816406 12.875 -6.992188 12.875 -6.109375 C 12.875 -4.078125 12.351562 -2.503906 11.3125 -1.390625 C 10.28125 -0.285156 8.882812 0.265625 7.125 0.265625 Z M 7.125 0.265625 "/></g></g></g><g fill="#ffffff" fill-opacity="1"><g transform="translate(208.203931, 253.986853)"><g><path d="M 2.171875 -12.21875 L 9.796875 -12.21875 L 9.796875 -10.8125 L 5.9375 0 L 3.984375 0 L 7.859375 -10.5 L 0.3125 -10.5 L 0.3125 -15.6875 L 2.171875 -15.6875 Z M 2.171875 -12.21875 "/></g></g></g><g fill="#ffffff" fill-opacity="1"><g transform="translate(218.731256, 253.986853)"><g><path d="M 1.90625 0 L 0.828125 -12.21875 L 2.6875 -12.21875 L 3.234375 -5.9375 L 4.671875 -6.375 C 5.234375 -6.550781 5.65625 -6.847656 5.9375 -7.265625 C 6.21875 -7.691406 6.390625 -8.289062 6.453125 -9.0625 L 6.75 -12.21875 L 8.609375 -12.21875 L 8.359375 -9.4375 C 8.285156 -8.644531 8.171875 -7.945312 8.015625 -7.34375 C 7.859375 -6.75 7.550781 -6.234375 7.09375 -5.796875 C 6.632812 -5.367188 5.914062 -5.015625 4.9375 -4.734375 L 3.390625 -4.265625 L 3.609375 -1.71875 L 6.21875 -1.71875 C 7.132812 -1.71875 7.976562 -1.910156 8.75 -2.296875 C 9.519531 -2.679688 10.148438 -3.285156 10.640625 -4.109375 C 11.140625 -4.929688 11.453125 -6.003906 11.578125 -7.328125 L 12.03125 -12.21875 L 13.890625 -12.21875 L 13.4375 -7.328125 C 13.394531 -6.804688 13.296875 -6.21875 13.140625 -5.5625 C 12.992188 -4.90625 12.757812 -4.253906 12.4375 -3.609375 C 12.125 -2.960938 11.695312 -2.363281 11.15625 -1.8125 C 10.625 -1.257812 9.953125 -0.816406 9.140625 -0.484375 C 8.328125 -0.160156 7.351562 0 6.21875 0 Z M 1.90625 0 "/></g></g></g><g fill="#ffffff" fill-opacity="1"><g transform="translate(123.98174, 269.481893)"><g><path d="M 6.21875 0 L 6.21875 -4.96875 C 6.21875 -5.570312 6.082031 -5.988281 5.8125 -6.21875 C 5.550781 -6.445312 5.179688 -6.5625 4.703125 -6.5625 L 1.09375 -6.5625 L 1.09375 -7.640625 L 4.78125 -7.640625 C 5.664062 -7.640625 6.316406 -7.445312 6.734375 -7.0625 C 7.160156 -6.675781 7.375 -6.054688 7.375 -5.203125 L 7.375 0 Z M 1.09375 0 L 1.09375 -4.5625 L 2.265625 -4.5625 L 2.265625 0 Z M 1.09375 0 "/></g></g></g><g fill="#ffffff" fill-opacity="1"><g transform="translate(136.671114, 269.481893)"><g><path d="M 4.453125 0.171875 C 3.734375 0.171875 3.113281 0.0390625 2.59375 -0.21875 C 2.070312 -0.488281 1.671875 -0.914062 1.390625 -1.5 C 1.109375 -2.082031 0.96875 -2.851562 0.96875 -3.8125 L 0.96875 -7.640625 L 2.125 -7.640625 L 2.125 -3.8125 C 2.125 -2.894531 2.3125 -2.171875 2.6875 -1.640625 C 3.0625 -1.109375 3.660156 -0.84375 4.484375 -0.84375 C 5.285156 -0.84375 5.875 -1.109375 6.25 -1.640625 C 6.632812 -2.171875 6.828125 -2.894531 6.828125 -3.8125 C 6.828125 -4.15625 6.816406 -4.492188 6.796875 -4.828125 C 6.785156 -5.160156 6.742188 -5.46875 6.671875 -5.75 C 6.597656 -6.03125 6.476562 -6.253906 6.3125 -6.421875 C 6.144531 -6.597656 5.90625 -6.6875 5.59375 -6.6875 C 5.375 -6.6875 5.125 -6.644531 4.84375 -6.5625 C 4.570312 -6.488281 4.328125 -6.390625 4.109375 -6.265625 L 4.109375 -7.375 C 4.273438 -7.457031 4.5 -7.539062 4.78125 -7.625 C 5.0625 -7.71875 5.378906 -7.765625 5.734375 -7.765625 C 6.265625 -7.765625 6.679688 -7.660156 6.984375 -7.453125 C 7.296875 -7.253906 7.523438 -6.972656 7.671875 -6.609375 C 7.828125 -6.253906 7.925781 -5.835938 7.96875 -5.359375 C 8.019531 -4.878906 8.046875 -4.363281 8.046875 -3.8125 C 8.046875 -2.539062 7.722656 -1.554688 7.078125 -0.859375 C 6.429688 -0.171875 5.554688 0.171875 4.453125 0.171875 Z M 4.453125 0.171875 "/></g></g></g><g fill="#ffffff" fill-opacity="1"><g transform="translate(149.644077, 269.481893)"><g><path d="M 1.359375 -7.640625 L 6.125 -7.640625 L 6.125 -6.765625 L 3.71875 0 L 2.484375 0 L 4.921875 -6.5625 L 0.1875 -6.5625 L 0.1875 -9.8125 L 1.359375 -9.8125 Z M 1.359375 -7.640625 "/></g></g></g><g fill="#ffffff" fill-opacity="1"><g transform="translate(160.502967, 269.481893)"><g><path d="M 0.390625 0 L 0.390625 -1.078125 L 4.5 -1.078125 L 4.5 -4.96875 C 4.5 -5.570312 4.363281 -5.988281 4.09375 -6.21875 C 3.832031 -6.445312 3.46875 -6.5625 3 -6.5625 L 0.390625 -6.5625 L 0.390625 -7.640625 L 3.078125 -7.640625 C 3.953125 -7.640625 4.601562 -7.445312 5.03125 -7.0625 C 5.457031 -6.675781 5.671875 -6.054688 5.671875 -5.203125 L 5.671875 -1.078125 L 6.671875 -1.078125 L 6.671875 0 Z M 0.390625 0 "/></g></g></g><g fill="#ffffff" fill-opacity="1"><g transform="translate(171.774365, 269.481893)"><g><path d="M 6.21875 0 L 6.21875 -4.96875 C 6.21875 -5.570312 6.082031 -5.988281 5.8125 -6.21875 C 5.550781 -6.445312 5.179688 -6.5625 4.703125 -6.5625 L 1.09375 -6.5625 L 1.09375 -7.640625 L 4.78125 -7.640625 C 5.664062 -7.640625 6.316406 -7.445312 6.734375 -7.0625 C 7.160156 -6.675781 7.375 -6.054688 7.375 -5.203125 L 7.375 0 Z M 1.09375 0 L 1.09375 -4.5625 L 2.265625 -4.5625 L 2.265625 0 Z M 1.09375 0 "/></g></g></g><g fill="#ffffff" fill-opacity="1"><g transform="translate(184.463736, 269.481893)"><g><path d="M 0.390625 0 L 0.390625 -1.078125 L 4.5 -1.078125 L 4.5 -4.96875 C 4.5 -5.570312 4.363281 -5.988281 4.09375 -6.21875 C 3.832031 -6.445312 3.46875 -6.5625 3 -6.5625 L 0.390625 -6.5625 L 0.390625 -7.640625 L 3.078125 -7.640625 C 3.953125 -7.640625 4.601562 -7.445312 5.03125 -7.0625 C 5.457031 -6.675781 5.671875 -6.054688 5.671875 -5.203125 L 5.671875 -1.078125 L 6.671875 -1.078125 L 6.671875 0 Z M 0.390625 0 "/></g></g></g><g fill="#ffffff" fill-opacity="1"><g transform="translate(195.735131, 269.481893)"><g/></g></g><g fill="#ffffff" fill-opacity="1"><g transform="translate(203.179518, 269.481893)"><g><path d="M 4.453125 0.171875 C 3.734375 0.171875 3.113281 0.0390625 2.59375 -0.21875 C 2.070312 -0.488281 1.671875 -0.914062 1.390625 -1.5 C 1.109375 -2.082031 0.96875 -2.851562 0.96875 -3.8125 L 0.96875 -7.640625 L 2.125 -7.640625 L 2.125 -3.8125 C 2.125 -2.894531 2.3125 -2.171875 2.6875 -1.640625 C 3.0625 -1.109375 3.660156 -0.84375 4.484375 -0.84375 C 5.285156 -0.84375 5.875 -1.109375 6.25 -1.640625 C 6.632812 -2.171875 6.828125 -2.894531 6.828125 -3.8125 C 6.828125 -4.15625 6.816406 -4.492188 6.796875 -4.828125 C 6.785156 -5.160156 6.742188 -5.46875 6.671875 -5.75 C 6.597656 -6.03125 6.476562 -6.253906 6.3125 -6.421875 C 6.144531 -6.597656 5.90625 -6.6875 5.59375 -6.6875 C 5.375 -6.6875 5.125 -6.644531 4.84375 -6.5625 C 4.570312 -6.488281 4.328125 -6.390625 4.109375 -6.265625 L 4.109375 -7.375 C 4.273438 -7.457031 4.5 -7.539062 4.78125 -7.625 C 5.0625 -7.71875 5.378906 -7.765625 5.734375 -7.765625 C 6.265625 -7.765625 6.679688 -7.660156 6.984375 -7.453125 C 7.296875 -7.253906 7.523438 -6.972656 7.671875 -6.609375 C 7.828125 -6.253906 7.925781 -5.835938 7.96875 -5.359375 C 8.019531 -4.878906 8.046875 -4.363281 8.046875 -3.8125 C 8.046875 -2.539062 7.722656 -1.554688 7.078125 -0.859375 C 6.429688 -0.171875 5.554688 0.171875 4.453125 0.171875 Z M 4.453125 0.171875 "/></g></g></g><g fill="#ffffff" fill-opacity="1"><g transform="translate(216.152478, 269.481893)"><g><path d="M 1.09375 0 L 1.09375 -7.640625 L 2.265625 -7.640625 L 2.265625 0 Z M 1.09375 0 "/></g></g></g><g fill="#ffffff" fill-opacity="1"><g transform="translate(223.788704, 269.481893)"><g><path d="M 1.359375 -7.640625 L 6.125 -7.640625 L 6.125 -6.765625 L 3.71875 0 L 2.484375 0 L 4.921875 -6.5625 L 0.1875 -6.5625 L 0.1875 -9.8125 L 1.359375 -9.8125 Z M 1.359375 -7.640625 "/></g></g></g><g fill="#ffffff" fill-opacity="1"><g transform="translate(234.647592, 269.481893)"><g><path d="M 0.96875 -2.75 L 0.96875 -7.640625 L 2.125 -7.640625 L 2.125 -3.90625 L 1.546875 -2.75 Z M 0.96875 -2.75 "/></g></g></g><g fill="#ffffff" fill-opacity="1"><g transform="translate(241.96155, 269.481893)"><g><path d="M 1.1875 0 L 0.515625 -7.640625 L 1.671875 -7.640625 L 2.03125 -3.71875 L 2.921875 -3.984375 C 3.273438 -4.097656 3.535156 -4.285156 3.703125 -4.546875 C 3.878906 -4.804688 3.992188 -5.179688 4.046875 -5.671875 L 4.21875 -7.640625 L 5.375 -7.640625 L 5.234375 -5.890625 C 5.179688 -5.398438 5.101562 -4.96875 5 -4.59375 C 4.90625 -4.226562 4.710938 -3.910156 4.421875 -3.640625 C 4.140625 -3.367188 3.691406 -3.140625 3.078125 -2.953125 L 2.109375 -2.671875 L 2.265625 -1.078125 L 3.890625 -1.078125 C 4.460938 -1.078125 4.988281 -1.195312 5.46875 -1.4375 C 5.945312 -1.675781 6.34375 -2.050781 6.65625 -2.5625 C 6.96875 -3.082031 7.160156 -3.753906 7.234375 -4.578125 L 7.53125 -7.640625 L 8.6875 -7.640625 L 8.40625 -4.578125 C 8.375 -4.253906 8.3125 -3.882812 8.21875 -3.46875 C 8.125 -3.0625 7.976562 -2.65625 7.78125 -2.25 C 7.582031 -1.851562 7.316406 -1.484375 6.984375 -1.140625 C 6.648438 -0.796875 6.226562 -0.519531 5.71875 -0.3125 C 5.207031 -0.101562 4.597656 0 3.890625 0 Z M 1.1875 0 "/></g></g></g></svg>